<svg xmlns="http://www.w3.org/2000/svg" version="1.1" xmlns:xlink="http://www.w3.org/1999/xlink" xmlns:svgjs="http://svgjs.com/svgjs" width="1000" height="1000"><svg version="1.1" xmlns="http://www.w3.org/2000/svg" xmlns:xlink="http://www.w3.org/1999/xlink" x="0px" y="0px" viewBox="0 0 1000 1000" enable-background="new 0 0 1000 1000" xml:space="preserve">
<metadata> Svg Vector Icons : http://www.onlinewebfonts.com/icon </metadata>
<g><g transform="translate(0.000000,511.000000) scale(0.100000,-0.100000)"><path d="M2877.2,3786.6L765.3,2565.5V110v-2455.5l2116.3-1221.2L5000-4790l2116.3,1223.4l2118.4,1223.4V110v2455.5L7116.3,3788.8C5949.8,4460.7,4995.6,5012.2,4993.4,5010C4991.2,5010,4039.3,4458.5,2877.2,3786.6z M4864.3,3817.3c-15.3-13.1-704.7-415.8-1531.9-892.9l-1503.5-866.6l-361.1,214.5c-199.2,116-363.3,216.7-361.1,223.2c0,6.6,849.1,501.2,1886.5,1098.6l1886.5,1087.7l6.6-418C4890.6,3946.4,4884,3837,4864.3,3817.3z M7129.4,3524c969.5-560.3,1763.9-1022,1766.1-1028.6c0-6.6-159.8-109.4-352.3-227.6l-354.5-216.7l-67.9,37.2c-37.2,19.7-726.6,418-1534.1,884.1l-1466.3,846.9l-6.6,433.3l-4.4,433.3l126.9-72.2C5306.4,4574.5,6157.7,4084.3,7129.4,3524z M4890.6,2992.2v-575.6l-921.3-529.6c-505.5-293.3-932.3-529.6-947.6-525.2c-39.4,8.8-954.2,551.5-954.2,564.6c0,8.8,2790.3,1632.6,2818.8,1639.2C4888.4,3567.8,4890.6,3309.6,4890.6,2992.2z M6586.6,2714.3c735.3-422.4,1343.7-776.9,1352.5-787.9c15.3-13.1-820.7-547.1-917-584.3c-17.5-6.6-455.2,234.2-971.7,531.8l-941,542.7v577.8v577.8l72.2-43.8C5218.8,3504.3,5853.5,3138.8,6586.6,2714.3z M1400,2053.4l306.4-181.6V90.3v-1781.4l-348-192.6c-190.4-107.2-354.5-194.8-365.5-194.8c-10.9,0-19.7,954.2-19.7,2188.5v2190.7l61.3-32.8C1067.3,2250.3,1231.4,2154,1400,2053.4z M9026.8,99.1c0-1391.9-6.6-2177.5-21.9-2177.5c-10.9,0-175.1,87.5-365.5,194.8l-345.8,192.6l-4.4,1770.5l-6.6,1770.5l345.8,212.3c188.2,116,356.7,212.3,372,212.3C9020.2,2276.6,9026.8,1828,9026.8,99.1z M4890.6,1633.2v-509.9L4522.9,911c-201.3-116-374.2-210.1-383-210.1c-37.2,0-871,507.7-857.9,520.9c21.9,24.1,1573.5,921.3,1593.2,923.5C4884,2145.3,4890.6,1915.5,4890.6,1633.2z M5952,1672.6c450.8-260.4,816.3-479.3,811.9-488c-6.6-8.8-188.2-122.6-404.9-253.9c-216.6-133.5-396.1-251.7-400.5-267c-4.4-15.3-177.2,72.2-426.7,216.7l-422.4,242.9v509.9c0,282.3,4.4,512.1,10.9,512.1C5126.9,2145.3,5501.2,1933,5952,1672.6z M2428.5,1445l426.8-251.7l-6.6-1127.1l-4.4-1124.9l-328.3-183.8c-179.5-100.7-380.8-210.1-442.1-247.3l-116-63.5V79.4c0,1037.3,8.8,1628.2,21.9,1623.8C1990.8,1701,2192.2,1582.8,2428.5,1445z M8042,66.2v-1619.5l-113.8,63.5c-63.5,37.2-262.6,146.6-444.3,247.3l-328.3,183.8l-4.4,1103l-6.6,1105.2l433.3,267c236.3,146.6,437.7,267,448.6,267C8035.4,1685.7,8042,957,8042,66.2z M3527.2,792.8l433.3-258.2l6.6-481.5l4.4-483.7l-435.5-245.1c-240.7-133.5-442.1-242.9-448.6-242.9c-6.6,0-13.1,444.3-13.1,984.8c0,542.7,4.4,984.8,8.8,984.8C3089.5,1051,3288.6,935.1,3527.2,792.8z M6917.1-912c-4.4-6.6-207.9,100.7-448.6,234.2l-439.9,245.1V46.6c0,400.5,4.4,474.9,30.7,466.1c17.5-6.6,216.7,102.9,442.1,240.7l413.6,253.9l6.6-956.4C6923.7-474.3,6921.5-907.6,6917.1-912z M5404.9,692.1l393.9-225.4l6.6-468.3l4.4-468.3l-404.9-234.2L5000-938.3l-404.9,234.2l-404.9,234.2l4.4,468.3l6.6,468.3l383,223.2c210.1,124.7,393.9,225.4,404.9,227.6C5002.2,919.7,5190.4,816.9,5404.9,692.1z M4468.2-887.9c223.2-129.1,409.2-245.1,413.6-258.2c4.4-13.1,6.6-247.3,4.4-520.9l-6.6-494.6l-827.2,477.1c-455.2,262.6-846.9,490.2-871,507.7c-37.2,26.3,0,50.3,402.7,273.6C3827-767.6,4034.9-656,4043.6-656C4054.6-656,4245-761,4468.2-887.9z M6413.7-901.1c242.9-135.7,437.7-253.8,429-262.6c-8.8-6.6-393.9-232-857.9-499c-464-267-849.1-490.2-860.1-496.8c-8.8-4.4-13.1,225.4-10.9,512.1l6.6,520.8l404.9,234.2C5748.5-763.2,5938.9-656,5949.8-656C5960.8-656,6168.7-767.6,6413.7-901.1z M3905.8-1857.4l973.9-564.6l6.6-463.9c4.4-385.2,0-461.8-24.1-446.5c-17.5,8.7-643.4,372-1391.9,803.2c-844.8,488-1352.5,794.4-1339.4,807.5c32.8,32.8,755,431.1,779.1,429C2923.1-1292.8,3369.6-1546.7,3905.8-1857.4z M7488.3-1500.7c207.9-116,383-218.9,389.5-227.6c4.4-8.7-601.8-369.8-1350.3-801s-1372.2-794.4-1389.7-803.2c-24.1-15.3-28.4,61.3-24.1,446.5l6.6,466.1l973.9,562.4c536.2,310.8,982.6,564.6,993.6,566.8C7100.9-1290.6,7280.4-1384.7,7488.3-1500.7z M3349.9-2715.3c818.5-470.5,1499.1-868.8,1514.4-882c19.7-19.7,26.3-129.1,21.9-446.4l-6.6-418L3012.9-3382.8c-1028.6,593.1-1871.1,1087.7-1871.1,1098.6c-4.4,13.1,665.3,404.9,720,424.6C1863.9-1859.6,2533.6-2244.8,3349.9-2715.3z M8501.6-2063.2c199.1-111.6,358.9-212.3,356.7-221c0-10.9-842.6-505.5-1871.2-1098.6L5120.4-4461.7l-6.6,418c-2.2,253.9,2.2,426.8,15.3,439.9c24.1,24.1,2980.7,1739.8,3000.4,1742C8136.1-1861.8,8302.4-1951.5,8501.6-2063.2z"></path></g></g>
</svg><style>@media (prefers-color-scheme: light) { :root { filter: none; } }
</style></svg>